<svg xmlns="http://www.w3.org/2000/svg" width="681.448" height="171.111" viewBox="0 0 681.448 171.111" fill="#edecec">
  <g id="Group_3" data-name="Group 3" transform="translate(-615.622 -470.689)">
    <path id="Path_2" data-name="Path 2" d="M80.711,36.8H68.889L8.622-132.533H21.067ZM149.178-85.6l-2.756,8.622H118.867v57.333a7.078,7.078,0,0,0,2.933,5.778,19.607,19.607,0,0,0,6.8,3.422,24.613,24.613,0,0,0,6.622,1.111,26.914,26.914,0,0,0,6.089-.756,44.257,44.257,0,0,0,4.933-1.378h1.6v5.511q-1.778,1.067-5.467,2.889A54.319,54.319,0,0,1,133.711.222a37.9,37.9,0,0,1-10.756,1.467A34.91,34.91,0,0,1,110.511-.4,19.875,19.875,0,0,1,101.8-6.489a15.023,15.023,0,0,1-3.2-9.689v-60.8H84.733v-5.156a58.7,58.7,0,0,0,8.044-2.4A11.943,11.943,0,0,0,98.2-88.578q2-2.711,2.267-7.956l.622-10.933,17.778-3.022V-85.6ZM356.115-11.289a12.8,12.8,0,0,1,3.911-9.467,13.022,13.022,0,0,1,9.511-3.867A13.066,13.066,0,0,1,379-20.756a12.729,12.729,0,0,1,3.956,9.467A12.815,12.815,0,0,1,379-1.911a12.917,12.917,0,0,1-9.467,3.956,12.873,12.873,0,0,1-9.511-3.956A12.887,12.887,0,0,1,356.115-11.289ZM399.781,0V-4.711l9.067-2.667a5.4,5.4,0,0,0,2.978-1.867,5.1,5.1,0,0,0,1.022-3.2V-114.489a5.081,5.081,0,0,0-1.2-3.6,10.691,10.691,0,0,0-4.222-2.356l-8.178-2.933v-3.556l33.867-7.378V-43.2L466.8-77.689l-10.667-3.733v-4.711H491.6v4.711L482-78.578a12.89,12.89,0,0,0-3.911,2,26.969,26.969,0,0,0-3.022,2.533L454.893-55.2l30.133,44a10.09,10.09,0,0,0,2.667,2.711,13.917,13.917,0,0,0,4,1.822l6.4,1.956V0H456.137V-4.711l8.444-2.844L441.293-42.489l-8.178,5.244v24.8A4.588,4.588,0,0,0,434.226-9.2a7,7,0,0,0,2.889,1.822l7.467,2.667V0ZM524.6-106.756a12.922,12.922,0,0,1-6.622-1.733,12.937,12.937,0,0,1-4.711-4.667,12.685,12.685,0,0,1-1.733-6.578,12.1,12.1,0,0,1,3.822-8.978,12.746,12.746,0,0,1,9.244-3.733,13.113,13.113,0,0,1,9.467,3.733,12.033,12.033,0,0,1,3.867,8.978,12.441,12.441,0,0,1-1.778,6.578,13.185,13.185,0,0,1-4.8,4.667A13.334,13.334,0,0,1,524.6-106.756ZM501.937,0V-4.711l9.511-2.667a5.337,5.337,0,0,0,2.889-1.778,4.965,4.965,0,0,0,1.111-3.289V-68.356a6.332,6.332,0,0,0-1.2-3.911,8.841,8.841,0,0,0-4.311-2.667l-7.644-2.756v-3.556l33.422-6.667v75.467a4.754,4.754,0,0,0,1.111,3.289,6.138,6.138,0,0,0,2.889,1.778l8.711,2.667V0Zm54.956,0V-4.711l9.067-2.667A5.509,5.509,0,0,0,568.937-9.2a5.059,5.059,0,0,0,1.022-3.244v-101.6A6.7,6.7,0,0,0,568.8-118a7.947,7.947,0,0,0-4.267-2.622l-8.178-2.756v-3.556l33.867-7.378V-12.444a4.753,4.753,0,0,0,1.111,3.289,6.138,6.138,0,0,0,2.889,1.778l8,2.667V0ZM690.07,36.8H678.248L617.981-132.533h12.444Z" transform="translate(607 605)"/>
    <path id="Path_3" data-name="Path 3" d="M2.335-72v3.85l8.015,2.335a4.436,4.436,0,0,1,2.114,1.357,3.48,3.48,0,0,1,.852,2.367V5.059a3.607,3.607,0,0,1-.884,2.461A4.128,4.128,0,0,1,10.35,8.845L2.335,11.117v3.85H40.328A62.57,62.57,0,0,0,57.21,13.074,27.287,27.287,0,0,0,67.466,8.056a17.21,17.21,0,0,0,5.112-6.942,21.6,21.6,0,0,0,1.452-7.731,20.786,20.786,0,0,0-3.187-11.865,24.427,24.427,0,0,0-7.794-7.479A37.682,37.682,0,0,0,54.276-29.9L44.62-36.784,30.356-32.871l.5,6a8.746,8.746,0,0,1,2.114-.379q1.736-.189,3.692-.284t2.966-.095a13.3,13.3,0,0,1,8.52,2.651,15.993,15.993,0,0,1,4.986,6.816A23.55,23.55,0,0,1,54.78-9.457q0,9.214-4.228,13.411t-11.928,4.2H31.24V-62.092a3.965,3.965,0,0,1,.726-2.43,3.422,3.422,0,0,1,1.988-1.294l9.34-2.335V-72ZM91.2-72H71a19.077,19.077,0,0,0-6,.757,8.745,8.745,0,0,0-3.755,2.493,39.685,39.685,0,0,0-3.44,4.639L39.066-34.575l15.778,5.743L76.428-60.766a15.836,15.836,0,0,1,3.029-3.092,10.539,10.539,0,0,1,3.6-2.083L91.2-68.15Z" transform="translate(764 591)"/>
    <path id="Path_4" data-name="Path 4" d="M27.378,1.778A22.277,22.277,0,0,1,15.333-1.467a22.364,22.364,0,0,1-8.044-8.578A24,24,0,0,1,4.444-21.511,22.908,22.908,0,0,1,8.489-35.289,31.694,31.694,0,0,1,18.756-44.4a48.023,48.023,0,0,1,13.156-5.067,58.768,58.768,0,0,1,12.8-1.556q1.067,0,3.244.178t4.311.356q2.133.178,3.289.178l.089-14.133q.089-8.622-2.489-11.422t-8.978-2.8A22.868,22.868,0,0,0,36.267-77.2a44.188,44.188,0,0,0-7.733,3.733Q24.8-71.2,21.556-68.844t-5.733,4.133H13.333L10.044-80.8a70.815,70.815,0,0,1,8.622-3.733,72.483,72.483,0,0,1,10.756-2.933,64.324,64.324,0,0,1,12.444-1.156A50.03,50.03,0,0,1,57.689-86a28.924,28.924,0,0,1,13.156,8.756q5.244,6.133,5.067,16.8l-.533,45.067A5.163,5.163,0,0,0,77.2-11.244q1.822,1.556,5.556,1.556a21.892,21.892,0,0,0,3.289-.444q2.4-.444,4.267-.889h1.422V-5.6a33.381,33.381,0,0,1-4.978,2.978A52.521,52.521,0,0,1,79.378.444a24.163,24.163,0,0,1-7.644,1.333q-7.378,0-11.911-3.067T55.289-12.711A30.264,30.264,0,0,1,46.044-3.2,29.823,29.823,0,0,1,36.133.844,46.7,46.7,0,0,1,27.378,1.778Zm11.644-12a25.066,25.066,0,0,0,8.8-1.733,15.3,15.3,0,0,0,7.556-6.267l.178-26.311a57.178,57.178,0,0,0-15.822,1.956,21.045,21.045,0,0,0-10.4,6.178q-3.644,4.222-3.644,10.978,0,5.778,2.044,9.111A11.586,11.586,0,0,0,32.844-11.6,14.953,14.953,0,0,0,39.022-10.222Z" transform="translate(854 605)"/>
    <path id="Path_5" data-name="Path 5" d="M14.66-22.048,9.517-24a36.231,36.231,0,0,1,2.9-5.7,33.49,33.49,0,0,1,4.345-5.616A21.753,21.753,0,0,1,22.433-39.6,14.5,14.5,0,0,1,29.26-41.26a21.246,21.246,0,0,1,7.6,1.271A42.212,42.212,0,0,1,43-37.092q2.808,1.626,5.5,2.9a13.188,13.188,0,0,0,5.7,1.271A7.685,7.685,0,0,0,60.53-35.88,54.462,54.462,0,0,0,65.5-43.565L70.638-41.5a40.243,40.243,0,0,1-2.985,5.734,33.116,33.116,0,0,1-4.374,5.616,22.486,22.486,0,0,1-5.616,4.256,14.158,14.158,0,0,1-6.768,1.655,21.246,21.246,0,0,1-7.6-1.271,43.592,43.592,0,0,1-6.177-2.9q-2.837-1.626-5.556-2.9a13.381,13.381,0,0,0-5.734-1.271,7.7,7.7,0,0,0-6.354,2.926A49.723,49.723,0,0,0,14.66-22.048Z" transform="translate(857 527)"/>
  </g>
</svg>
